# xmcd CD database file
#
# Track frame offsets:
#	150
#	27917
#	55723
#	83768
#	126019
#
# Disc length: 1726 seconds
#
# Revision: 0
# Processed by: cddbd v1.5.1PL0 Copyright (c) Steve Scherf et al.
# Submitted via: CDex 1.51
#
DISCID=3306bc05
DTITLE=キリンジ - You And Me
DYEAR=2004
DGENRE=Pop
TTITLE0=You And Me
TTITLE1=You And Me (Instrumental)
TTITLE2=嫉妬 (Live Version)
TTITLE3=繁華街 (Live Version)
TTITLE4=data
EXTD=YEAR: 2004
EXTT0=
EXTT1=
EXTT2=
EXTT3=
EXTT4=
PLAYORDER=
